<?xml version="1.0" encoding="UTF-8"?>
<svg id="Layer_2" data-name="Layer 2" xmlns="http://www.w3.org/2000/svg" xmlns:xlink="http://www.w3.org/1999/xlink" viewBox="0 0 671.43 227.29">
  <defs>
    <style>
      .cls-1 {
        opacity: .2;
      }

      .cls-1, .cls-2, .cls-3, .cls-4, .cls-5, .cls-6, .cls-7 {
        stroke-width: 0px;
      }

      .cls-1, .cls-8 {
        fill: #005eb8;
      }

      .cls-2 {
        fill: url(#linear-gradient);
      }

      .cls-9 {
        letter-spacing: .04em;
      }

      .cls-10 {
        font-family: SegoeUI-Bold, 'Segoe UI';
        font-size: 84.46px;
        font-weight: 700;
      }

      .cls-3 {
        fill: url(#linear-gradient-5);
      }

      .cls-4 {
        fill: url(#linear-gradient-2);
      }

      .cls-11 {
        fill: #2ec63c;
      }

      .cls-12 {
        fill: #4d4d4d;
        font-family: SegoeUI-Semibold, 'Segoe UI';
        font-size: 32.06px;
        font-weight: 600;
      }

      .cls-5 {
        fill: url(#linear-gradient-3);
      }

      .cls-13 {
        fill: #e6f1fb;
        stroke: #fff;
        stroke-miterlimit: 10;
        stroke-width: .5px;
      }

      .cls-14 {
        letter-spacing: 0em;
      }

      .cls-15 {
        letter-spacing: 0em;
      }

      .cls-16 {
        letter-spacing: 0em;
      }

      .cls-6 {
        fill: url(#linear-gradient-4);
        opacity: .36;
      }

      .cls-7 {
        fill: #2eb6cc;
      }
    </style>
    <linearGradient id="linear-gradient" x1="23.65" y1="138.68" x2="235.32" y2="138.68" gradientUnits="userSpaceOnUse">
      <stop offset=".08" stop-color="#0f6837"/>
      <stop offset="1" stop-color="#2e9e35"/>
    </linearGradient>
    <linearGradient id="linear-gradient-2" x1="3.71" y1="99.8" x2="223.48" y2="30.36" gradientUnits="userSpaceOnUse">
      <stop offset="0" stop-color="#005eb8"/>
      <stop offset=".26" stop-color="#2085cf"/>
      <stop offset=".59" stop-color="#44b1e8"/>
      <stop offset=".85" stop-color="#5bccf9"/>
      <stop offset="1" stop-color="#64d7ff"/>
    </linearGradient>
    <linearGradient id="linear-gradient-3" x1="116.32" y1="156.27" x2="116.32" y2="108.18" gradientTransform="translate(232.64 269.27) rotate(-180)" gradientUnits="userSpaceOnUse">
      <stop offset="0" stop-color="#e6f1fb"/>
      <stop offset=".06" stop-color="#d0ecfb"/>
      <stop offset=".17" stop-color="#aee5fc"/>
      <stop offset=".29" stop-color="#93e0fd"/>
      <stop offset=".42" stop-color="#7edcfe"/>
      <stop offset=".57" stop-color="#6fd9fe"/>
      <stop offset=".74" stop-color="#66d7fe"/>
      <stop offset="1" stop-color="#64d7ff"/>
    </linearGradient>
    <linearGradient id="linear-gradient-4" x1="118.59" y1="73.51" x2="177.59" y2="132.51" gradientUnits="userSpaceOnUse">
      <stop offset=".39" stop-color="#2eb6cc"/>
      <stop offset=".47" stop-color="#32b8cf"/>
      <stop offset=".55" stop-color="#3ec0db"/>
      <stop offset=".64" stop-color="#52ccee"/>
      <stop offset=".69" stop-color="#64d7ff"/>
    </linearGradient>
    <linearGradient id="linear-gradient-5" x1="137.88" y1="139.76" x2="137.88" y2="90.02" gradientUnits="userSpaceOnUse">
      <stop offset="0" stop-color="#e6f1fb"/>
      <stop offset=".18" stop-color="#e6f1fb" stop-opacity=".99"/>
      <stop offset=".31" stop-color="#e7f1fb" stop-opacity=".95"/>
      <stop offset=".43" stop-color="#e8f2fb" stop-opacity=".89"/>
      <stop offset=".54" stop-color="#ebf3fb" stop-opacity=".8"/>
      <stop offset=".64" stop-color="#edf5fc" stop-opacity=".68"/>
      <stop offset=".74" stop-color="#f1f7fc" stop-opacity=".54"/>
      <stop offset=".84" stop-color="#f5f9fd" stop-opacity=".37"/>
      <stop offset=".93" stop-color="#fafcfe" stop-opacity=".18"/>
      <stop offset="1" stop-color="#fff" stop-opacity="0"/>
    </linearGradient>
  </defs>
  <g id="Layer_1-2" data-name="Layer 1">
    <g>
      <text class="cls-12" transform="translate(269.04 213.6)"><tspan x="0" y="0">Clear Ca</tspan><tspan class="cls-14" x="119.38" y="0">r</tspan><tspan x="130.96" y="0">e. E</tspan><tspan class="cls-15" x="181.14" y="0">v</tspan><tspan class="cls-16" x="197.15" y="0">e</tspan><tspan class="cls-9" x="214.18" y="0">r</tspan><tspan x="227.33" y="0">y Language.</tspan></text>
      <g>
        <path class="cls-2" d="M235.31,113.86c0,8.61-.05,15.54-.14,18.12-1.49,28.71-22.78,52.19-50.14,57.74-.31.07-.63.12-.94.18-3.83.72-7.78,1.09-11.8,1.06-21.21.21-53.6.5-74.8.97-38.98.86-72.09,32.7-73.84,33.4,0-1.01.04-2.3.28-3.8.07-.43.18-1.02.18-1.03.23-.91.48-1.85.78-2.83h0s0-.04.02-.06c.03-.09.07-.18.1-.27h-.02c.1-.34.21-.69.34-1.04.83-2.7,1.81-5.3,2.93-7.79,3.52-7.92,8.38-14.82,14.17-20.84,13.81-14.36,32.93-23.77,51.94-30.16.54.23,1.15.35,1.78.35h40.32c2.54,0,4.6-2.06,4.6-4.6v-36.48c11.37-1.61,22.91-3.57,34.08-6.74,27.49-6.81,55.86-25.1,58.09-57.08.16-2.2.61,0,.78.89.78,3.76,1.17,7.83,1.24,11.71v.09c0,6.99.02,19.36.03,31.6,0,5.75,0,11.47,0,16.6Z"/>
        <path class="cls-4" d="M230.46,46.79c.19,6.09-1.56,13.01-4.04,19.26-5.3,13.36-16.25,22.44-25.58,28.22-2.44,1.53-4.99,2.91-7.61,4.19-3.85,1.87-7.87,3.48-11.99,4.89-13.01,4.45-27.07,6.87-40.15,8.77-2.71.4-5.37.77-7.97,1.13-10.73,1.52-19.33,3.43-28.89,6.27-4.55,1.36-8.77,2.81-12.66,4.3-19.36,7.38-30.34,15.45-31.35,16.21-10.81,8.18-20.72,19.88-29.99,35.53-.83.77-1.74.62-2.68,0C9.98,163.95,0,143.9,0,122.13v-59.89C0,41.61,10.05,23.32,25.51,11.99c.29-.21.58-.42.87-.63.35-.25.7-.5,1.06-.73.41-.28.83-.55,1.25-.83C37.11,4.41,46.92.98,57.46.18c.45-.03.91-.06,1.36-.08,1.13-.07,2.28-.1,3.43-.1h43.37c29.51,0,60.99.02,64.79,0,28.35-.23,53.69,19.73,60.04,46.65l.02.14Z"/>
        <path class="cls-7" d="M94.38,157.5c-26.98,9.07-54.19,24.22-66.11,51-1.12,2.49-2.1,5.09-2.93,7.79-.12.35-.24.7-.34,1.04-.03.09-.07.18-.08.27,0,.02,0,.03-.02.05h0c-.31.99-.55,1.93-.78,2.84,0,0-.12.64-.18,1.03-.24,1.49-.29,2.79-.28,3.8h0s-.11-.08-.17-.15c-.03-.02-.06-.06-.08-.09-.12-.14-.44-.53-.66-1.57,0,0,0-.02,0-.03v-.02c-.69-2.17-1.03-4.44-1.47-7.13-5.7-33.63,24.82-71.52,54.82-86.92,3.85-2.05,9.8-4.92,15.48-7.26v31.09c0,1.91,1.16,3.54,2.82,4.24Z"/>
        <path class="cls-13" d="M181.23,72.79v30.57c-13.01,4.45-27.07,10.69-40.15,12.6v37.31c0,2.54-2.06,4.6-4.6,4.6h-40.32c-.64,0-1.24-.12-1.78-.35-1.66-.7-2.82-2.34-2.82-4.24v-35.55h-35.54c-2.54,0-4.61-2.06-4.61-4.61v-40.31c0-2.54,2.06-4.61,4.61-4.61h35.54v-35.54c0-2.54,2.06-4.6,4.61-4.6h40.32c2.54,0,4.6,2.06,4.6,4.6v35.54h35.54c2.54,0,4.61,2.06,4.61,4.61Z"/>
        <rect class="cls-5" x="97.85" y="117.71" width="36.95" height="33.86" transform="translate(232.64 269.27) rotate(180)"/>
        <path class="cls-1" d="M224.76,69.74c-5.71,11.37-15.48,19.3-23.92,24.53-5.09,3.18-12.13,6.34-19.6,9.24v-30.73l-.02-.35c16.73-2.91,32.07-3.15,43.55-2.7Z"/>
        <path class="cls-6" d="M181.23,72.79v30.57c-13.01,4.45-27.07,10.77-40.15,12.68v.42h-43.24c-3.67-4.11,34.69-29.91,75.15-42.39,2.71-.83,5.51-1.16,8.21-1.63l.02.35Z"/>
        <rect class="cls-3" x="134.79" y="90.28" width="6.17" height="46.08"/>
      </g>
      <text class="cls-10" transform="translate(265.83 87.93)"><tspan class="cls-8"><tspan x="0" y="0">Practice</tspan></tspan><tspan class="cls-11"><tspan x="0" y="72.19">Lingo</tspan></tspan></text>
    </g>
  </g>
</svg>